<svg width="33" height="35" viewBox="0 0 33 35" fill="none" xmlns="http://www.w3.org/2000/svg">
<g clip-path="url(#clip0_40_188)">
<path d="M18.9433 26.137H14.0564V31.942H18.9433V26.137Z" fill="#FDCC9B"/>
<path d="M14.0566 26.8206C14.0566 26.8206 16.1123 28.209 18.9436 27.8874V26.1368H14.0566V26.8206Z" fill="#FCBC85"/>
<path d="M7.00977 20.021C8.32671 20.021 9.3943 18.7291 9.3943 17.1356C9.3943 15.542 8.32671 14.2502 7.00977 14.2502C5.69283 14.2502 4.62524 15.542 4.62524 17.1356C4.62524 18.7291 5.69283 20.021 7.00977 20.021Z" fill="#FCBC85"/>
<path d="M25.9902 20.021C27.3072 20.021 28.3748 18.7291 28.3748 17.1356C28.3748 15.542 27.3072 14.2502 25.9902 14.2502C24.6733 14.2502 23.6057 15.542 23.6057 17.1356C23.6057 18.7291 24.6733 20.021 25.9902 20.021Z" fill="#FCBC85"/>
<path d="M25.9806 11.6243C25.9806 7.37432 23.0484 4.26428 16.5 4.26428C9.95155 4.26428 7.01939 7.37414 7.01939 11.6243C7.01939 15.8745 6.33528 27.0699 16.5 27.0699C26.6647 27.0699 25.9806 15.8745 25.9806 11.6243Z" fill="#FDCC9B"/>
<path d="M11.8822 17.6367C12.449 17.6367 12.9085 17.1029 12.9085 16.4445C12.9085 15.7861 12.449 15.2524 11.8822 15.2524C11.3154 15.2524 10.856 15.7861 10.856 16.4445C10.856 17.1029 11.3154 17.6367 11.8822 17.6367Z" fill="#3B2519"/>
<path d="M11.4348 16.2437C11.6043 16.2437 11.7417 16.0979 11.7417 15.9182C11.7417 15.7384 11.6043 15.5927 11.4348 15.5927C11.2653 15.5927 11.1279 15.7384 11.1279 15.9182C11.1279 16.0979 11.2653 16.2437 11.4348 16.2437Z" fill="white"/>
<path d="M10.2405 13.4902C10.7258 13.7476 11.505 12.6156 13.2887 13.6004C13.6139 13.7799 13.8079 12.0649 11.896 12.0649C10.2405 12.0649 9.94725 13.3348 10.2405 13.4902Z" fill="#51362A"/>
<path d="M21.2445 17.6367C21.8113 17.6367 22.2708 17.1029 22.2708 16.4445C22.2708 15.7861 21.8113 15.2524 21.2445 15.2524C20.6777 15.2524 20.2183 15.7861 20.2183 16.4445C20.2183 17.1029 20.6777 17.6367 21.2445 17.6367Z" fill="#3B2519"/>
<path d="M20.7971 16.2437C20.9666 16.2437 21.104 16.0979 21.104 15.9182C21.104 15.7384 20.9666 15.5927 20.7971 15.5927C20.6276 15.5927 20.4902 15.7384 20.4902 15.9182C20.4902 16.0979 20.6276 16.2437 20.7971 16.2437Z" fill="white"/>
<path d="M22.7595 13.4902C22.2742 13.7476 21.495 12.6156 19.7113 13.6004C19.3861 13.7799 19.1921 12.0649 21.1042 12.0649C22.7595 12.0649 23.0526 13.3348 22.7595 13.4902Z" fill="#51362A"/>
<path d="M16.4999 20.6377C15.4858 20.6377 14.875 19.8344 14.875 20.223C14.875 20.6118 15.1683 21.3505 16.4999 21.3505C17.8316 21.3505 18.1249 20.6118 18.1249 20.223C18.1249 19.8342 17.5139 20.6377 16.4999 20.6377Z" fill="#FCBC85"/>
<path d="M16.5001 24.2119C16.1493 24.2119 15.938 23.934 15.938 24.0685C15.938 24.2031 16.0394 24.4584 16.5001 24.4584C16.9608 24.4584 17.062 24.2031 17.062 24.0685C17.062 23.934 16.8507 24.2119 16.5001 24.2119Z" fill="#FCBC85"/>
<path d="M16.5 23.2215C14.8927 23.2215 13.9243 22.5273 13.9243 22.7032C13.9243 22.8792 14.3892 23.5715 16.5 23.5715C18.6109 23.5715 19.0757 22.8792 19.0757 22.7032C19.0756 22.5273 18.1073 23.2215 16.5 23.2215Z" fill="#F7945E"/>
<path d="M16.5 28.4692V35H4.62524C4.62524 32.3565 10.8801 28.4692 16.5 28.4692Z" fill="#F7941E"/>
<path d="M16.5 28.4692V35H28.3748C28.3748 32.3565 22.1199 28.4692 16.5 28.4692Z" fill="#F7941E"/>
<path d="M16.5001 28.4692C15.3047 28.4692 14.0808 28.6464 12.8943 28.9488C12.9023 28.96 14.2103 30.7498 16.5001 30.7498C18.6204 30.7498 20.0301 29.217 20.2344 28.9813C19.0078 28.6584 17.7387 28.4692 16.5001 28.4692Z" fill="#F36C21"/>
<path d="M14.0564 28.6953C14.0564 28.6953 14.7711 29.6355 16.4998 29.6355C18.2284 29.6355 18.9433 28.6953 18.9433 28.6953C18.9433 28.6953 16.4083 27.7165 14.0564 28.6953Z" fill="#FDCC9B"/>
<path d="M24.2945 3.35745C24.2945 3.35745 20.776 -1.38502 13.463 0.403104C6.15014 2.19105 5.60218 6.85593 5.82213 11.3944C6.04208 15.933 6.62844 18.5955 7.32204 18.2665C8.01563 17.9373 7.65471 14.9415 7.72802 14.2502C7.80134 13.5588 8.46102 10.4322 12.9087 10.8987C17.3562 11.3653 21.1042 9.65475 21.1042 9.65475C21.1042 9.65475 22.6129 11.6774 23.6057 12.065C25.5898 12.8392 24.9391 18.0018 25.7165 18.0018C26.4938 18.0018 30.3055 6.07851 24.2945 3.35745Z" fill="#51362A"/>
</g>
<defs>
<clipPath id="clip0_40_188">
<rect width="33" height="35" fill="white"/>
</clipPath>
</defs>
</svg>
