<svg width="40" height="22" viewBox="0 0 40 22" fill="none" xmlns="http://www.w3.org/2000/svg">
<path d="M0.574136 17.468L39.4259 17.4681C39.6046 17.4681 39.773 17.3849 39.8817 17.243C39.9904 17.1011 40.0267 16.9167 39.9801 16.7442C38.9231 12.8337 36.5699 9.30577 33.354 6.81025C30.035 4.23476 26.0518 2.8734 21.8353 2.8734H11.4937V1.37351C11.4937 1.05643 11.2367 0.799377 10.9196 0.799377H3.92119C3.6041 0.799377 3.34705 1.05643 3.34705 1.37351V2.8734H0.574136C0.257049 2.8734 0 3.13045 0 3.44754V5.90115V10.1708V16.894C0 17.211 0.257049 17.468 0.574136 17.468ZM1.14827 7.12143L3.87091 8.46032V9.59662H1.14827V7.12143ZM21.1009 7.0135L32.7747 9.59653H21.1009V7.0135ZM21.8354 4.02167C24.1702 4.02167 26.4286 4.46655 28.5277 5.32701H20.5268C20.2097 5.32701 19.9526 5.58406 19.9526 5.90115V10.1708C19.9526 10.4878 20.2097 10.7449 20.5268 10.7449H35.6953C37.0057 12.409 38.0172 14.3024 38.6588 16.3199L1.14827 16.3197V10.7448H4.44505C4.76213 10.7448 5.01918 10.4878 5.01918 10.1707V5.90107C5.01918 5.58398 4.76213 5.32693 4.44505 5.32693H1.14827V4.02159H21.8354V4.02167Z" fill="white"/>
<path d="M39.4259 18.2002H0.574136C0.257049 18.2002 0 18.4572 0 18.7743V20.6266C0 20.9437 0.257049 21.2007 0.574136 21.2007H37.5735C38.9115 21.2007 40 20.1123 40 18.7743C40 18.4572 39.743 18.2002 39.4259 18.2002Z" fill="white"/>
<path d="M13.5153 15.0145H17.9273C18.2444 15.0145 18.5014 14.7574 18.5014 14.4403V5.90113C18.5014 5.58404 18.2444 5.327 17.9273 5.327H13.5153C13.1982 5.327 12.9412 5.58404 12.9412 5.90113V14.4403C12.9412 14.7574 13.1981 15.0145 13.5153 15.0145ZM14.0894 13.8662V6.9883L17.3532 8.59334V13.8662H14.0894Z" fill="white"/>
<path d="M7.04435 10.7448H10.9153C11.2323 10.7448 11.4894 10.4878 11.4894 10.1707V5.90107C11.4894 5.58398 11.2323 5.32693 10.9153 5.32693H7.04435C6.72726 5.32693 6.47021 5.58398 6.47021 5.90107V10.1707C6.47021 10.4878 6.72726 10.7448 7.04435 10.7448ZM7.61849 9.59654V7.12136L10.3411 8.46024V9.59654H7.61849Z" fill="white"/>
</svg>
