<svg width="80" height="42" viewBox="0 0 80 42" fill="none" xmlns="http://www.w3.org/2000/svg">
<path d="M1.14827 33.936L78.8517 33.9361C79.2092 33.9361 79.5461 33.7696 79.7635 33.4859C79.9808 33.2021 80.0535 32.8333 79.9601 32.4883C77.8462 24.6673 73.1397 17.6115 66.7079 12.6204C60.0699 7.46946 52.1037 4.74674 43.6706 4.74674H22.9874V1.74697C22.9874 1.11279 22.4733 0.598694 21.8392 0.598694H7.84237C7.2082 0.598694 6.6941 1.11279 6.6941 1.74697V4.74674H1.14827C0.514098 4.74674 0 5.26084 0 5.89502V10.8022V19.3414V32.7879C0 33.4219 0.514098 33.936 1.14827 33.936ZM2.29655 13.2428L7.74182 15.9206V18.1932H2.29655V13.2428ZM42.2018 13.0269L65.5495 18.193H42.2018V13.0269ZM43.6708 7.04329C48.3405 7.04329 52.8571 7.93303 57.0554 9.65396H41.0535C40.4194 9.65396 39.9053 10.1681 39.9053 10.8022V19.3414C39.9053 19.9756 40.4194 20.4897 41.0535 20.4897H71.3906C74.0114 23.8179 76.0344 27.6047 77.3176 31.6398L2.29655 31.6394V20.4896H8.89009C9.52427 20.4896 10.0384 19.9755 10.0384 19.3413V10.8021C10.0384 10.1679 9.52427 9.6538 8.89009 9.6538H2.29655V7.04312H43.6708V7.04329Z" fill="url(#paint0_linear_40_76)"/>
<path d="M78.8517 35.4004H1.14827C0.514098 35.4004 0 35.9145 0 36.5487V40.2532C0 40.8873 0.514098 41.4014 1.14827 41.4014H75.1471C77.823 41.4014 80 39.2246 80 36.5487C80 35.9145 79.4859 35.4004 78.8517 35.4004Z" fill="url(#paint1_linear_40_76)"/>
<path d="M27.0304 29.0289H35.8543C36.4885 29.0289 37.0026 28.5148 37.0026 27.8806V10.8022C37.0026 10.1681 36.4885 9.65396 35.8543 9.65396H27.0304C26.3962 9.65396 25.8821 10.1681 25.8821 10.8022V27.8806C25.8821 28.5148 26.396 29.0289 27.0304 29.0289ZM28.1786 26.7324V12.9766L34.7061 16.1866V26.7324H28.1786Z" fill="url(#paint2_linear_40_76)"/>
<path d="M14.0893 20.4896H21.8311C22.4653 20.4896 22.9794 19.9755 22.9794 19.3413V10.8021C22.9794 10.1679 22.4653 9.65384 21.8311 9.65384H14.0893C13.4551 9.65384 12.941 10.1679 12.941 10.8021V19.3413C12.941 19.9757 13.4551 20.4896 14.0893 20.4896ZM15.2376 18.193V13.2427L20.6829 15.9205V18.193H15.2376Z" fill="url(#paint3_linear_40_76)"/>
<defs>
<linearGradient id="paint0_linear_40_76" x1="68" y1="17" x2="-2.71663e-07" y2="17" gradientUnits="userSpaceOnUse">
<stop stop-color="#EC7AB7"/>
<stop offset="1" stop-color="#EC7A7A"/>
</linearGradient>
<linearGradient id="paint1_linear_40_76" x1="80" y1="38" x2="-2.06427e-09" y2="38" gradientUnits="userSpaceOnUse">
<stop stop-color="#EC7AB7"/>
<stop offset="1" stop-color="#EC7A7A"/>
</linearGradient>
<linearGradient id="paint2_linear_40_76" x1="31.4423" y1="9.65396" x2="31.4423" y2="29.0289" gradientUnits="userSpaceOnUse">
<stop stop-color="#EC7AB7"/>
<stop offset="1" stop-color="#EC7A7A"/>
</linearGradient>
<linearGradient id="paint3_linear_40_76" x1="17.9602" y1="9.65384" x2="17.9602" y2="20.4896" gradientUnits="userSpaceOnUse">
<stop stop-color="#EC7AB7"/>
<stop offset="1" stop-color="#EC7A7A"/>
</linearGradient>
</defs>
</svg>
