<svg width="40" height="40" viewBox="0 0 40 40" fill="none" xmlns="http://www.w3.org/2000/svg">
<path d="M40 7.39117V13.7357L38.4888 13.7844C36.7953 13.8391 35.4688 15.1907 35.4688 16.861C35.4688 17.2995 35.5609 17.716 35.7266 18.0929H32.4695C32.3871 17.6914 32.3438 17.2794 32.3438 16.861C32.3438 15.2517 32.97 13.7291 34.1068 12.5742C34.8798 11.789 35.8319 11.2308 36.875 10.9385V7.39117C36.875 6.54217 36.174 5.85136 35.3125 5.85136H28.75C27.8885 5.85136 27.1875 6.54217 27.1875 7.39117H24.0625C24.0625 6.54217 23.3615 5.85136 22.5 5.85136H4.6875C3.82599 5.85136 3.125 6.54217 3.125 7.39117V10.8967C5.81757 11.5821 7.8125 13.9961 7.8125 16.861C7.8125 19.7259 5.81757 22.14 3.125 22.8254V25.8689C3.125 26.7179 3.82599 27.4088 4.6875 27.4088H21.4062V30.4884H4.6875C2.10266 30.4884 0 28.4163 0 25.8689V19.9407H1.5625C3.28552 19.9407 4.6875 18.559 4.6875 16.861C4.6875 15.163 3.28552 13.7814 1.5625 13.7814H0V7.39117C0 4.84386 2.10266 2.77173 4.6875 2.77173H22.5C23.6996 2.77173 24.7949 3.21864 25.625 3.95185C26.4551 3.21864 27.5504 2.77173 28.75 2.77173H35.3125C37.8973 2.77173 40 4.84386 40 7.39117ZM27.1875 10.5478H24.0625V13.6274H27.1875V10.5478ZM24.0625 19.0168H27.1875V15.9371H24.0625V19.0168ZM24.0625 24.4061H27.1875V21.3265H24.0625V24.4061ZM33.8281 21.3265H30.7031V27.4088H24.5312V30.4884H30.7031V36.5707H33.8281V30.4884H40V27.4088H33.8281V21.3265Z" fill="url(#paint0_linear_157_1488)"/>
<defs>
<linearGradient id="paint0_linear_157_1488" x1="20" y1="2.77173" x2="20" y2="36.5707" gradientUnits="userSpaceOnUse">
<stop stop-color="#EC7AB7"/>
<stop offset="1" stop-color="#EC7A7A"/>
</linearGradient>
</defs>
</svg>
